<svg xmlns="http://www.w3.org/2000/svg" width="640" height="400" viewBox="0 0 640 400">
  <rect width="640" height="400" fill="#EEF1FC"/>
  <rect x="16" y="16" width="608" height="368" rx="10" fill="#fff" stroke="#E2E7F5" stroke-width="1.5"/>
  <rect x="16" y="16" width="608" height="44" rx="10" fill="#7C3AED" opacity="0.07"/>
  <text x="36" y="45" font-family="sans-serif" font-size="13" fill="#7C3AED" font-weight="600">ржЕржбрж┐ржпрж╝рзЗржирзНрж╕ ржЗржирж╕рж╛ржЗржЯ тАФ Meta Ads</text>
  <!-- donut chart simulation -->
  <circle cx="200" cy="190" r="90" fill="none" stroke="#E2E7F5" stroke-width="28"/>
  <circle cx="200" cy="190" r="90" fill="none" stroke="#1F4BFF" stroke-width="28" stroke-dasharray="226 339" stroke-dashoffset="85" stroke-linecap="round"/>
  <circle cx="200" cy="190" r="90" fill="none" stroke="#7C3AED" stroke-width="28" stroke-dasharray="113 452" stroke-dashoffset="-141" stroke-linecap="round"/>
  <circle cx="200" cy="190" r="90" fill="none" stroke="#16A34A" stroke-width="28" stroke-dasharray="57 508" stroke-dashoffset="-254" stroke-linecap="round"/>
  <text x="200" y="183" font-family="sans-serif" font-size="22" fill="#0B1220" font-weight="700" text-anchor="middle">рзмрзн%</text>
  <text x="200" y="200" font-family="sans-serif" font-size="10" fill="#5A667A" text-anchor="middle">ржорзВрж▓ ржЕржбрж┐ржпрж╝рзЗржирзНрж╕</text>
  <!-- legend -->
  <rect x="340" y="120" width="12" height="12" rx="3" fill="#1F4BFF"/>
  <text x="360" y="132" font-family="sans-serif" font-size="11" fill="#0B1220">рж▓рзБржХржЕрзНржпрж╛рж▓рж╛ржЗржХ (рзмрзн%)</text>
  <rect x="340" y="148" width="12" height="12" rx="3" fill="#7C3AED"/>
  <text x="360" y="160" font-family="sans-serif" font-size="11" fill="#0B1220">рж░рж┐ржЯрж╛рж░рзНржЧрзЗржЯрж┐ржВ (рзйрзй%)</text>
  <rect x="340" y="176" width="12" height="12" rx="3" fill="#16A34A"/>
  <text x="360" y="188" font-family="sans-serif" font-size="11" fill="#0B1220">ржмрзНрж░ржб (рззрзн%)</text>
  <!-- age breakdown -->
  <text x="340" y="230" font-family="sans-serif" font-size="10" fill="#8A96AA" font-weight="600">ржмржпрж╝рж╕ ржмрж┐ржнрж╛ржЬржи</text>
  <rect x="340" y="240" width="80" height="10" rx="3" fill="#1F4BFF" opacity="0.8"/>
  <text x="428" y="250" font-family="sans-serif" font-size="9" fill="#5A667A">18тАУ24 (рзйрзо%)</text>
  <rect x="340" y="258" width="56" height="10" rx="3" fill="#1F4BFF" opacity="0.55"/>
  <text x="404" y="268" font-family="sans-serif" font-size="9" fill="#5A667A">25тАУ34 (рзирзн%)</text>
  <rect x="340" y="276" width="36" height="10" rx="3" fill="#1F4BFF" opacity="0.35"/>
  <text x="384" y="286" font-family="sans-serif" font-size="9" fill="#5A667A">35тАУ44 (рззрзн%)</text>
  <text x="320" y="375" font-family="sans-serif" font-size="11" fill="#8A96AA" text-anchor="middle">ЁЯУ╕ placeholder-3.svg тЖТ replace with real Audience Insights screenshot</text>
</svg>
