<svg xmlns="http://www.w3.org/2000/svg" width="640" height="400" viewBox="0 0 640 400">
  <rect width="640" height="400" fill="#EEF1FC"/>
  <rect x="16" y="16" width="608" height="368" rx="10" fill="#fff" stroke="#E2E7F5" stroke-width="1.5"/>
  <!-- header bar -->
  <rect x="16" y="16" width="608" height="44" rx="10" fill="#1F4BFF" opacity="0.06"/>
  <text x="36" y="45" font-family="sans-serif" font-size="13" fill="#1F4BFF" font-weight="600">ржХрзНржпрж╛ржорзНржкрзЗржЗржи ржбрзНржпрж╛рж╢ржмрзЛрж░рзНржб тАФ Ads Manager</text>
  <!-- stat boxes -->
  <rect x="36" y="76" width="120" height="60" rx="8" fill="#E8EEFF"/>
  <text x="96" y="100" font-family="sans-serif" font-size="18" fill="#1F4BFF" font-weight="700" text-anchor="middle">рз│рзкрзл,рзирзжрзж</text>
  <text x="96" y="118" font-family="sans-serif" font-size="10" fill="#5A667A" text-anchor="middle">ржорзЛржЯ ржЦрж░ржЪ</text>
  <rect x="172" y="76" width="120" height="60" rx="8" fill="#DCFCE7"/>
  <text x="232" y="100" font-family="sans-serif" font-size="18" fill="#16A34A" font-weight="700" text-anchor="middle">рз│рзз,рзорзп,рзорзкрзж</text>
  <text x="232" y="118" font-family="sans-serif" font-size="10" fill="#5A667A" text-anchor="middle">ржорзЛржЯ рж░рзЗржнрж┐ржирж┐ржЙ</text>
  <rect x="308" y="76" width="120" height="60" rx="8" fill="#FEF3C7"/>
  <text x="368" y="100" font-family="sans-serif" font-size="18" fill="#D97706" font-weight="700" text-anchor="middle">рзк.рзиx</text>
  <text x="368" y="118" font-family="sans-serif" font-size="10" fill="#5A667A" text-anchor="middle">ROAS</text>
  <rect x="444" y="76" width="120" height="60" rx="8" fill="#E8EEFF"/>
  <text x="504" y="100" font-family="sans-serif" font-size="18" fill="#1F4BFF" font-weight="700" text-anchor="middle">рзз,рзирзкрзн</text>
  <text x="504" y="118" font-family="sans-serif" font-size="10" fill="#5A667A" text-anchor="middle">ржХржиржнрж╛рж░рзНрж╕ржи</text>
  <!-- bar chart -->
  <rect x="36" y="160" width="568" height="180" rx="8" fill="#F5F7FF" stroke="#E2E7F5" stroke-width="1"/>
  <rect x="60"  y="280" width="36" height="44" rx="4" fill="#1F4BFF" opacity="0.25"/>
  <rect x="110" y="260" width="36" height="64" rx="4" fill="#1F4BFF" opacity="0.4"/>
  <rect x="160" y="230" width="36" height="94" rx="4" fill="#1F4BFF" opacity="0.55"/>
  <rect x="210" y="200" width="36" height="124" rx="4" fill="#1F4BFF" opacity="0.7"/>
  <rect x="260" y="180" width="36" height="144" rx="4" fill="#1F4BFF" opacity="0.85"/>
  <rect x="310" y="170" width="36" height="154" rx="4" fill="#1F4BFF"/>
  <rect x="360" y="185" width="36" height="139" rx="4" fill="#1F4BFF" opacity="0.8"/>
  <rect x="410" y="210" width="36" height="114" rx="4" fill="#1F4BFF" opacity="0.6"/>
  <rect x="460" y="240" width="36" height="84" rx="4" fill="#1F4BFF" opacity="0.4"/>
  <!-- replace hint -->
  <text x="320" y="375" font-family="sans-serif" font-size="11" fill="#8A96AA" text-anchor="middle">ЁЯУ╕ placeholder-1.svg тЖТ replace with real Ads Manager screenshot</text>
</svg>
