<svg xmlns="http://www.w3.org/2000/svg" width="640" height="400" viewBox="0 0 640 400">
  <rect width="640" height="400" fill="#EEF1FC"/>
  <rect x="16" y="16" width="608" height="368" rx="10" fill="#fff" stroke="#E2E7F5" stroke-width="1.5"/>
  <rect x="16" y="16" width="608" height="44" rx="10" fill="#16A34A" opacity="0.08"/>
  <text x="36" y="45" font-family="sans-serif" font-size="13" fill="#16A34A" font-weight="600">ROAS рж░рж┐ржкрзЛрж░рзНржЯ тАФ рж╕рж╛ржкрзНрждрж╛рж╣рж┐ржХ ржЯрзНрж░рзНржпрж╛ржХрж┐ржВ</text>
  <!-- line chart simulation -->
  <rect x="36" y="76" width="568" height="240" rx="8" fill="#F5F7FF" stroke="#E2E7F5" stroke-width="1"/>
  <!-- grid lines -->
  <line x1="36" y1="136" x2="604" y2="136" stroke="#E2E7F5" stroke-width="1"/>
  <line x1="36" y1="196" x2="604" y2="196" stroke="#E2E7F5" stroke-width="1"/>
  <line x1="36" y1="256" x2="604" y2="256" stroke="#E2E7F5" stroke-width="1"/>
  <!-- line -->
  <polyline points="60,280 120,260 190,240 260,210 330,175 400,150 470,135 540,110 590,100" fill="none" stroke="#1F4BFF" stroke-width="3" stroke-linecap="round" stroke-linejoin="round"/>
  <polyline points="60,280 120,260 190,240 260,210 330,175 400,150 470,135 540,110 590,100" fill="url(#grad)" stroke="none" opacity="0.12"/>
  <defs>
    <linearGradient id="grad" x1="0" y1="0" x2="0" y2="1">
      <stop offset="0%" stop-color="#1F4BFF"/>
      <stop offset="100%" stop-color="#1F4BFF" stop-opacity="0"/>
    </linearGradient>
  </defs>
  <!-- dots -->
  <circle cx="330" cy="175" r="5" fill="#1F4BFF"/>
  <circle cx="590" cy="100" r="5" fill="#16A34A"/>
  <!-- labels -->
  <text x="590" y="92" font-family="sans-serif" font-size="11" fill="#16A34A" font-weight="700" text-anchor="middle">рзк.рзиx</text>
  <!-- axis -->
  <text x="60"  y="312" font-family="sans-serif" font-size="9" fill="#8A96AA" text-anchor="middle">рж╕ржкрзНрждрж╛рж╣ рзз</text>
  <text x="190" y="312" font-family="sans-serif" font-size="9" fill="#8A96AA" text-anchor="middle">рж╕ржкрзНрждрж╛рж╣ рзй</text>
  <text x="330" y="312" font-family="sans-serif" font-size="9" fill="#8A96AA" text-anchor="middle">рж╕ржкрзНрждрж╛рж╣ рзл</text>
  <text x="470" y="312" font-family="sans-serif" font-size="9" fill="#8A96AA" text-anchor="middle">рж╕ржкрзНрждрж╛рж╣ рзн</text>
  <text x="590" y="312" font-family="sans-serif" font-size="9" fill="#8A96AA" text-anchor="middle">рж╕ржкрзНрждрж╛рж╣ рзп</text>
  <text x="320" y="375" font-family="sans-serif" font-size="11" fill="#8A96AA" text-anchor="middle">ЁЯУ╕ placeholder-2.svg тЖТ replace with real ROAS screenshot</text>
</svg>
